PathFileType	4	(X/Y/Z)	C:/Users/opensim2020/Desktop/walking_exp_matlab/subject06_walking14_straight_04.trc	
DataRate	CameraRate	NumFrames	NumMarkers	Units	OrigDataRate	OrigDataStartFrame	OrigNumFrames	
100.00	100.00	6	45	mm	100.00	2973	227	
Frame#	Time	LFHD			RFHD			LBHD			RBHD			C7			T10			CLAV			STRN			RBAK			LSHO			LUPA			LELB			LFRM			LWRA			LWRB			LFIN			RSHO			RUPA			RELB			RFRM			RWRA			RWRB			RFIN			LASI			RASI			LPSI			RPSI			LTHI			LKNE			LTIB			LANK			LHEE			LTOE			RTHI			RKNE			RTIB			RANK			RHEE			RTOE			*39			*40			*41			*42			*43			*44			
		X1	Y1	Z1	X2	Y2	Z2	X3	Y3	Z3	X4	Y4	Z4	X5	Y5	Z5	X6	Y6	Z6	X7	Y7	Z7	X8	Y8	Z8	X9	Y9	Z9	X10	Y10	Z10	X11	Y11	Z11	X12	Y12	Z12	X13	Y13	Z13	X14	Y14	Z14	X15	Y15	Z15	X16	Y16	Z16	X17	Y17	Z17	X18	Y18	Z18	X19	Y19	Z19	X20	Y20	Z20	X21	Y21	Z21	X22	Y22	Z22	X23	Y23	Z23	X24	Y24	Z24	X25	Y25	Z25	X26	Y26	Z26	X27	Y27	Z27	X28	Y28	Z28	X29	Y29	Z29	X30	Y30	Z30	X31	Y31	Z31	X32	Y32	Z32	X33	Y33	Z33	X34	Y34	Z34	X35	Y35	Z35	X36	Y36	Z36	X37	Y37	Z37	X38	Y38	Z38	X39	Y39	Z39	X40	Y40	Z40	X41	Y41	Z41	X42	Y42	Z42	X43	Y43	Z43	X44	Y44	Z44	X45	Y45	Z45	

57	0.560	-931.49475	584.27930	1669.60718	-1063.27869	574.89276	1663.57214	-942.47742	715.91241	1612.22388	-1071.59631	704.84790	1611.46570	-1004.61304	708.32062	1455.09570	-1018.25201	732.26965	1125.98145	-1000.04297	595.40619	1382.72034	-997.37305	549.10400	1207.16125	-1090.61694	772.67535	1285.10986	-842.46173	666.22424	1409.62183	-773.12164	675.05292	1206.24866	-764.55206	678.77960	1093.72583	-741.40125	654.93536	945.96680	-781.24731	594.50446	830.45367	-743.97107	655.62482	826.85260	-740.46399	614.06616	745.99847	-1162.71497	633.56091	1416.50171	-1253.17883	647.70239	1216.59558	-1267.19604	621.08124	1097.18811	-1284.15625	581.94476	983.60376	-1255.79578	491.56598	863.20465	-1287.83691	548.40424	848.85498	-1290.89148	496.46582	782.73926	-904.89368	558.63666	965.96857	-1124.60413	554.71857	971.75385	-933.41211	716.72815	991.87885	-1101.99268	707.17328	998.56543	-847.84052	561.36005	656.12714	-872.30182	512.87970	501.48611	-883.53711	669.62506	314.25046	-920.67365	768.30695	173.03253	-973.58374	801.53229	176.16862	-895.91376	672.54779	68.25407	-1168.32837	606.03131	634.32831	-1137.51367	600.60944	509.72244	-1133.61475	672.63214	250.12418	-1081.06067	712.83032	69.93892	-1039.59827	757.55249	48.27765	-1071.43396	561.33948	31.06039	-996.41779	680.94629	1708.22620															 
58	0.570	-931.66559	574.26190	1669.23035	-1063.47668	564.62183	1663.30286	-943.11743	705.81702	1611.91736	-1071.71448	694.22833	1611.16577	-1005.18286	698.22784	1454.83484	-1019.12097	722.50775	1125.74622	-1000.48108	585.45880	1382.40674	-998.03094	539.32452	1206.83838	-1091.83508	762.65350	1284.99988	-843.02441	656.39178	1409.22607	-773.71606	667.69806	1205.98206	-765.28632	673.34674	1093.63928	-742.34338	652.66559	945.36981	-783.41205	596.14410	828.18329	-744.26343	656.19226	826.41718	-742.32196	617.21686	744.11548	-1163.17688	623.29828	1416.38953	-1253.99341	635.33673	1216.59021	-1268.13696	606.88062	1097.57336	-1285.07349	565.22644	984.91382	-1256.52148	472.11462	866.82605	-1288.46008	528.54419	850.99805	-1291.59424	474.92316	786.20941	-905.57965	548.28265	966.21466	-1125.38867	545.61127	971.18762	-933.76648	707.02094	991.73224	-1102.44446	697.90363	998.05310	-847.54669	547.20984	657.61157	-872.70685	497.50732	503.60782	-884.40314	647.31104	309.75375	-921.77588	738.80676	163.80359	-975.17279	771.60498	164.66898	-894.80646	637.93781	64.91226	-1167.44983	598.80273	633.43750	-1137.73596	595.59387	508.85559	-1133.52869	670.60632	250.00313	-1080.97375	712.66571	70.30672	-1039.30872	757.39203	48.80657	-1071.49512	561.20428	30.99666	-996.74762	670.71332	1707.98669															 
59	0.580	-931.85028	564.18408	1668.73132	-1063.67200	554.40967	1662.91528	-943.39636	695.86371	1611.54297	-1072.10620	683.92664	1610.84851	-1005.67688	688.12726	1454.50781	-1019.90448	712.81519	1125.43750	-1000.88501	575.46112	1381.98145	-998.66284	529.61017	1206.31470	-1092.83948	752.63770	1284.87158	-843.43500	646.45667	1408.65613	-774.32904	660.32465	1205.59241	-766.03247	668.14459	1093.48071	-743.24774	650.61957	944.75043	-785.34564	597.41980	826.17023	-744.74139	656.55774	826.13214	-744.17792	619.80878	742.33014	-1163.56396	612.98547	1416.12598	-1254.79333	623.01813	1216.46277	-1269.16638	592.98608	1097.88525	-1285.94763	548.80664	986.20038	-1257.43530	452.77988	870.55621	-1289.03333	508.93372	853.25806	-1292.12976	453.69034	789.85046	-906.55231	538.90643	966.01324	-1126.12390	536.48370	970.45630	-934.09308	697.46906	991.43976	-1102.80469	688.65405	997.37256	-847.67883	534.52576	658.72815	-873.07104	482.66382	505.44180	-885.16388	624.47327	304.77512	-922.68378	708.56976	154.27872	-976.50775	741.15839	153.20935	-893.86493	602.88409	61.68933	-1167.29932	592.12457	632.62866	-1137.96570	590.60516	507.88342	-1133.45630	668.53442	249.80632	-1080.80359	712.35980	70.59185	-1038.97876	757.20209	49.27951	-1071.62512	561.15601	31.00327	-997.06470	660.54388	1707.58777															 
60	0.590	-932.01581	554.18787	1668.20874	-1063.83008	544.20630	1662.44177	-943.72540	685.75671	1610.93835	-1072.41174	673.62579	1610.34119	-1006.04181	678.00488	1454.04553	-1020.61481	703.15936	1125.03894	-1001.24652	565.38599	1381.42944	-999.25061	519.80182	1205.67786	-1093.73901	742.71948	1284.70251	-843.80927	636.42987	1407.98511	-774.84393	653.15729	1205.17041	-766.68561	663.09277	1093.23779	-744.70526	647.99731	943.95569	-787.60883	598.02124	824.49426	-745.52002	656.34857	825.66656	-746.22614	622.07288	740.86780	-1163.94653	602.72089	1415.74792	-1255.55566	610.84540	1216.26880	-1270.11304	579.29144	1098.12146	-1286.78809	532.64490	987.47955	-1258.13025	433.84854	874.35364	-1289.48804	489.55911	855.58862	-1292.56555	432.76984	793.60449	-907.24048	529.00671	965.82141	-1126.78345	527.36383	969.63245	-934.28766	687.51233	990.95245	-1102.98743	679.23914	996.50482	-847.57733	521.65802	659.65979	-873.36047	468.38004	507.02109	-885.66644	601.46423	299.32214	-923.36890	677.70227	144.72060	-977.40613	709.88025	141.63448	-893.39142	567.10620	58.45431	-1167.87097	585.57263	631.66949	-1138.20740	585.70923	506.97406	-1133.40515	666.54077	249.70595	-1080.70142	712.08044	70.87732	-1038.76208	757.07861	49.80831	-1071.67993	561.06226	30.93417	-997.35022	650.44598	1707.08044															 
61	0.600	-932.16412	544.11121	1667.50635	-1063.96899	533.97729	1661.84216	-944.09741	675.67792	1610.23218	-1072.75928	663.44122	1609.74719	-1006.42542	667.77466	1453.55847	-1021.21918	693.38623	1124.49634	-1001.54614	555.35114	1380.73730	-999.78448	509.95081	1204.94482	-1094.49304	732.61639	1284.36914	-844.15222	626.29175	1407.17273	-775.31958	645.94965	1204.69727	-767.36102	658.22443	1092.96570	-745.67938	645.76489	943.31390	-789.96820	599.15143	822.87604	-746.52722	656.16071	825.32660	-748.31226	623.92743	739.57031	-1164.24536	592.36871	1415.26758	-1256.27515	598.78589	1215.98279	-1271.05481	565.79840	1098.33752	-1287.56995	516.80096	988.74463	-1258.38257	415.35684	878.15631	-1289.85046	470.54614	857.95355	-1292.88037	412.12778	797.44177	-907.82855	519.08087	965.61481	-1127.29993	519.14496	968.49683	-934.40466	677.75671	990.33716	-1103.14441	669.95258	995.64758	-847.57098	509.32800	660.29736	-873.57239	454.61234	508.20084	-885.87659	578.26825	293.60956	-923.81824	646.13116	135.19269	-977.70886	678.48389	130.34714	-893.38281	530.80408	55.55912	-1167.35474	578.64813	630.98657	-1138.46155	580.76410	506.02985	-1133.24023	664.68091	249.62160	-1080.67688	711.86737	71.19785	-1038.58533	756.92310	50.33836	-1071.84595	560.96783	31.05970	-997.53613	640.26239	1706.40833															 
62	0.610	-932.24866	533.95239	1666.66199	-1064.01733	523.68982	1661.12378	-944.34625	665.46863	1609.38367	-1073.02197	653.15771	1608.98389	-1006.76355	657.52875	1452.88513	-1021.78082	683.67761	1123.92847	-1001.81915	545.29810	1379.81104	-1000.31238	500.05273	1204.03906	-1095.15723	722.57959	1284.01843	-844.43408	616.08716	1406.23206	-775.75684	638.86426	1204.12585	-767.96759	653.21637	1092.60034	-746.74408	643.50891	942.70178	-791.82660	599.91388	821.36163	-747.57635	655.75433	824.99701	-750.34924	625.43970	738.39978	-1164.45544	582.02716	1414.62292	-1257.01904	586.78137	1215.71509	-1271.90076	552.45746	1098.42102	-1288.28027	501.15466	989.95496	-1258.74658	397.21289	881.97614	-1290.05444	451.86172	860.33685	-1293.11035	391.94501	801.30298	-908.38727	509.06912	965.23322	-1127.81409	509.09265	967.67731	-934.50690	668.00354	989.79492	-1103.18628	660.68182	994.71106	-847.64008	497.41904	660.63129	-873.74591	441.23611	508.97742	-885.98499	554.44550	287.51785	-924.10199	613.81049	125.63842	-978.15912	645.70111	119.06059	-893.97095	494.07220	52.91520	-1167.16589	571.91614	630.09369	-1138.72913	575.79974	505.08841	-1133.33032	662.40454	249.43460	-1080.58289	711.57867	71.58412	-1038.39075	756.70050	50.89520	-1071.92041	560.88721	31.01636	-997.70215	630.10565	1705.63623															 
